<svg xmlns="http://www.w3.org/2000/svg" width="132.763" height="56.169" viewBox="0 0 132.763 56.169">
  <g id="troka" transform="translate(-247.222 -79.915)">
    <path id="Shape" d="M127.58,44.161h-2.059L9.545,43.6H3.181A3.048,3.048,0,0,1,0,40.708v-7.87H1.248V0H104.435a1.845,1.845,0,0,1,1.5.793c2.059,3.115,8.537,14.364,12.228,20.948a12.066,12.066,0,0,0,3.075,3.427c.279.246.568.5.856.762l.624.566a1.548,1.548,0,0,0,.311.339l.312.284a2.6,2.6,0,0,1,.189.2,2.652,2.652,0,0,0,.185.2l.25.227c.062.084.125.155.185.224s.126.143.188.229a.8.8,0,0,1,.093.113.806.806,0,0,0,.094.114,3.177,3.177,0,0,1,.375.452.791.791,0,0,1,.093.114.789.789,0,0,0,.093.114l.375.509a.277.277,0,0,1,.062.113.273.273,0,0,0,.063.113,1.729,1.729,0,0,1,.154.282,1.715,1.715,0,0,0,.157.285.188.188,0,0,0,.031.084.19.19,0,0,1,.031.085c.031.057.063.128.094.2s.063.142.094.2a.761.761,0,0,0,.125.339c.065.234.129.411.186.566a.761.761,0,0,1,.125.34c.03.135.06.141.089.147s.065.014.1.192l-.062.283h1.373a1.614,1.614,0,0,1,1.684,1.528v5.775C129.763,41.286,129.114,44.161,127.58,44.161ZM31.818,43.6h0Z" transform="translate(248.722 81.415)" fill="none" stroke="#333" stroke-linecap="round" stroke-linejoin="round" stroke-miterlimit="10" stroke-width="3"/>
    <path id="Path" d="M0,0H95.565V21.175H0Z" transform="translate(258.688 104.062)" fill="#333" stroke="#333" stroke-linecap="round" stroke-linejoin="round" stroke-miterlimit="10" stroke-width="2"/>
    <path id="Path-2" data-name="Path" d="M4.416,0c4.529.113,8.1,4.7,7.983,10.191s-3.85,9.851-8.379,9.682H0L.4,0Z" transform="translate(336.797 114.706)" fill="#333" stroke="#333" stroke-linecap="round" stroke-linejoin="round" stroke-miterlimit="10" stroke-width="2"/>
    <path id="Path-3" data-name="Path" d="M0,9.686C.116,4.194,3.853-.165,8.382,0s8.1,4.7,7.983,10.191-3.85,9.851-8.379,9.682S-.111,15.178,0,9.686Z" transform="translate(329.094 114.701)" fill="#727272" stroke="#333" stroke-linecap="round" stroke-linejoin="round" stroke-miterlimit="10" stroke-width="3"/>
    <path id="Path-4" data-name="Path" d="M0,5.382c-.057,3.057,1.925,5.548,4.416,5.662S9,8.723,9.06,5.665,7.135.117,4.644,0,.058,2.382,0,5.382Z" transform="translate(332.776 119.119)" fill="#919191" stroke="#333" stroke-linecap="round" stroke-linejoin="round" stroke-miterlimit="10" stroke-width="2"/>
    <path id="Path-5" data-name="Path" d="M0,2.493A2.422,2.422,0,0,0,2.038,5.1,2.353,2.353,0,0,0,4.19,2.606,2.379,2.379,0,0,0,2.151,0,2.353,2.353,0,0,0,0,2.493Z" transform="translate(335.212 122.121)" fill="#727272" stroke="#333" stroke-linecap="round" stroke-linejoin="round" stroke-miterlimit="10" stroke-width="2"/>
    <g id="llanta" transform="translate(-12 -1)">
      <path id="Path-6" data-name="Path" d="M4.416,0c4.529.113,8.1,4.7,7.983,10.191s-3.85,9.851-8.379,9.682H0L.4,0Z" transform="translate(278.783 114.706)" fill="#333" stroke="#333" stroke-linecap="round" stroke-linejoin="round" stroke-miterlimit="10" stroke-width="2"/>
      <path id="Path-7" data-name="Path" d="M0,9.686C.116,4.194,3.853-.165,8.382,0s8.1,4.7,7.983,10.191-3.85,9.851-8.379,9.682S-.111,15.178,0,9.686Z" transform="translate(271.08 114.701)" fill="#727272" stroke="#333" stroke-linecap="round" stroke-linejoin="round" stroke-miterlimit="10" stroke-width="3"/>
      <path id="Path-8" data-name="Path" d="M0,5.382c-.057,3.057,1.925,5.548,4.416,5.662S9,8.723,9.06,5.665,7.135.117,4.644,0,.058,2.382,0,5.382Z" transform="translate(274.762 119.119)" fill="#919191" stroke="#333" stroke-linecap="round" stroke-linejoin="round" stroke-miterlimit="10" stroke-width="2"/>
      <path id="Path-9" data-name="Path" d="M0,2.493A2.422,2.422,0,0,0,2.038,5.1,2.353,2.353,0,0,0,4.19,2.606,2.379,2.379,0,0,0,2.151,0,2.353,2.353,0,0,0,0,2.493Z" transform="translate(277.197 122.121)" fill="#727272" stroke="#333" stroke-linecap="round" stroke-linejoin="round" stroke-miterlimit="10" stroke-width="2"/>
    </g>
    <g id="llanta_atras_fondo" data-name="llanta atras fondo" transform="translate(-15 -1)">
      <path id="Path-10" data-name="Path" d="M4.416,0c4.529.113,8.1,4.7,7.983,10.191s-3.85,9.851-8.379,9.682H0L.4,0Z" transform="translate(301.996 114.706)" fill="#333" stroke="#333" stroke-linecap="round" stroke-linejoin="round" stroke-miterlimit="10" stroke-width="2"/>
      <path id="Path-11" data-name="Path" d="M0,9.686C.116,4.194,3.853-.165,8.382,0s8.1,4.7,7.983,10.191-3.85,9.851-8.379,9.682S-.111,15.178,0,9.686Z" transform="translate(294.293 114.701)" fill="#727272" stroke="#333" stroke-linecap="round" stroke-linejoin="round" stroke-miterlimit="10" stroke-width="2"/>
      <path id="Path-12" data-name="Path" d="M0,5.382c-.057,3.057,1.925,5.548,4.416,5.662S9,8.723,9.06,5.665,7.135.117,4.644,0,.058,2.382,0,5.382Z" transform="translate(297.975 119.119)" fill="#727272" stroke="#333" stroke-linecap="round" stroke-linejoin="round" stroke-miterlimit="10" stroke-width="2"/>
    </g>
    <path id="Path-13" data-name="Path" d="M4.416,0c4.529.113,8.1,4.7,7.983,10.191s-3.85,9.851-8.379,9.682H0L.4,0Z" transform="translate(362.576 114.706)" fill="#333" stroke="#333" stroke-linecap="round" stroke-linejoin="round" stroke-miterlimit="10" stroke-width="2"/>
    <path id="Path-14" data-name="Path" d="M0,9.686C.116,4.194,3.853-.165,8.382,0s8.1,4.7,7.983,10.191-3.85,9.851-8.379,9.682S-.111,15.178,0,9.686Z" transform="translate(354.874 114.701)" fill="#727272" stroke="#333" stroke-linecap="round" stroke-linejoin="round" stroke-miterlimit="10" stroke-width="2"/>
    <path id="Path-15" data-name="Path" d="M0,5.382c-.057,3.057,1.925,5.548,4.416,5.662S9,8.723,9.06,5.665,7.135.117,4.644,0,.058,2.382,0,5.382Z" transform="translate(358.555 119.119)" fill="#727272" stroke="#333" stroke-linecap="round" stroke-linejoin="round" stroke-miterlimit="10" stroke-width="2"/>
    <path id="Shape-2" data-name="Shape" d="M18.733,43.935l3.442-5.605.057-5.153H47.9a1.52,1.52,0,0,1,1.523,1.529v5.208a7.98,7.98,0,0,1-.485,2.486v1.183h-.7a1.118,1.118,0,0,1-.786.351Zm3.554-10.758L0,0H26.294a1.636,1.636,0,0,1,1.354.793c1.207,2.018,4.1,7.459,6.752,12.569,1.649,3.172,3.136,6.067,4.307,8.379,1.467,3.4,7.052,5.661,7.843,11.38l-.057.057Z" transform="translate(329.059 81.415)" fill="#fff" stroke="#333" stroke-linecap="round" stroke-linejoin="round" stroke-miterlimit="10" stroke-width="2"/>
    <rect id="Rectángulo_25" data-name="Rectángulo 25" width="25" height="10" transform="translate(353 115)" fill="#a85c5c"/>
    <path id="Path-16" data-name="Path" d="M76,42.972C76.13,36.4,81.231,31.2,87.289,31.366A11.122,11.122,0,0,1,97.3,38.9c2.359-2.718,4.591-5.775,4.591-5.775-.893-5.718-7.2-7.983-8.863-11.38C89.265,15.173,82.634,3.907,80.53.793A1.905,1.905,0,0,0,79,0H0V40.934a2.711,2.711,0,0,0,2.869,2.548H8.416v-.51C8.544,36.4,13.645,31.2,19.7,31.366s10.9,5.605,10.776,12.116H76v-.51Z" transform="translate(250.184 81.415)" fill="#bf5f5f" stroke="#333" stroke-linecap="round" stroke-linejoin="round" stroke-miterlimit="10" stroke-width="2"/>
    <path id="Path-17" data-name="Path" d="M0,40.368H4.84a12.592,12.592,0,0,1,4.453-9.455,11.284,11.284,0,0,1,7.615-2.661A12.109,12.109,0,0,1,28.394,40.368H73.178a12.592,12.592,0,0,1,4.453-9.455,11.284,11.284,0,0,1,7.615-2.661A11.8,11.8,0,0,1,95.57,35.216c1.742-2.095,3.291-4.133,3.743-4.756-.581-3.171-3.1-5.265-5.292-7.134a13.89,13.89,0,0,1-3.614-3.907C87.181,13.871,81.954,4.529,79.115,0H0V40.368Z" transform="translate(252.109 83.963)" fill="#fff"/>
    <path id="Path-18" data-name="Path" d="M0,0H.679V2.774H0Z" transform="translate(255.95 125.048)" fill="#333"/>
    <path id="Shape-3" data-name="Shape" d="M0,3.907V0H2.285V3.907Zm76.4-.566V.566h.857V3.341Z" transform="translate(253.384 123.482)" fill="#333"/>
    <path id="Path-19" data-name="Path" d="M1.812,0H0V3.907H1.812Z" transform="translate(327.398 123.482)" fill="#333"/>
    <path id="Path-20" data-name="Path" d="M0,0,8.832,16.815H25.478L16.476,0Z" transform="translate(339.335 85.812)" fill="#333" stroke="#333" stroke-linecap="round" stroke-linejoin="round" stroke-miterlimit="10" stroke-width="2"/>
    <path id="Shape-4" data-name="Shape" d="M23.27,0a13.548,13.548,0,0,1,3.85,5.265ZM0,0A15.3,15.3,0,0,1,3.85,5.265Z" transform="translate(348.195 107.403)" fill="#ffde02" stroke="#333" stroke-linecap="round" stroke-linejoin="round" stroke-miterlimit="10" stroke-width="2"/>
    <path id="Path-21" data-name="Path" d="M0,.056A10.968,10.968,0,0,1,2.523,2.309a11.532,11.532,0,0,1,2.864,8V10.7H7.227c1.7,0,2.386-2.929,2.386-4V0" transform="translate(342.998 114.593)" fill="#fff" stroke="#333" stroke-linecap="round" stroke-linejoin="round" stroke-miterlimit="10" stroke-width="2"/>
    <path id="Path-22" data-name="Path" d="M5.1,0V6.737c0,1.076-.566,4.02-1.982,4.02H0" transform="translate(347.516 114.593)" fill="none" stroke="#333" stroke-linecap="round" stroke-linejoin="round" stroke-miterlimit="10" stroke-width="3"/>
    <path id="Path-23" data-name="Path" d="M9.059,9.738A14.963,14.963,0,0,1,13.135,0H0V7.757a2.9,2.9,0,0,0,2.887,2.887H9.059Z" transform="translate(248.552 114.65)" fill="#fff" stroke="#333" stroke-linecap="round" stroke-linejoin="round" stroke-miterlimit="10" stroke-width="2"/>
    <path id="Path-24" data-name="Path" d="M4.48,17.325a3.29,3.29,0,0,1-3.171-2.944L.007.679A.627.627,0,0,1,.573,0H11.727a.623.623,0,0,1,.566.34L20.956,16.7a.611.611,0,0,1-.283.849.51.51,0,0,1-.283.057L4.48,17.325Z" transform="translate(318.521 86.473)" fill="#ffde02" stroke="#333" stroke-linecap="round" stroke-linejoin="round" stroke-miterlimit="10" stroke-width="2"/>
    <path id="Path-25" data-name="Path" d="M13.75,20.022,13.809.057A.057.057,0,0,0,13.75,0H.059C0,0,0,0,0,.057v36.8H13.809Z" transform="translate(301.983 84.793)" fill="#fff" stroke="#333" stroke-linecap="round" stroke-linejoin="round" stroke-miterlimit="10" stroke-width="1"/>
    <path id="Path-26" data-name="Path" d="M1.019,14.947A1.3,1.3,0,0,1,0,14.1V.226A.244.244,0,0,1,.226,0H8.662l7.021,13.248a.424.424,0,0,1,.057.283V14.72a.244.244,0,0,1-.226.226Z" transform="translate(320.906 86.228)" fill="#333"/>
    <path id="Shape-5" data-name="Shape" d="M1.8,17.079A1.939,1.939,0,0,1,0,15.7V.842A.87.87,0,0,1,.934,0H10.87a.646.646,0,0,1,.6.36l8.269,14.073a1.608,1.608,0,0,1,.134.541v1.263a.871.871,0,0,1-.934.842Z" transform="translate(319.34 86.662)" fill="#333"/>
    <g id="Shape-6" data-name="Shape" transform="translate(351.422 111.592)" fill="#e1e0dd" stroke-linecap="round" stroke-linejoin="round" stroke-miterlimit="10">
      <path d="M 25.01435089111328 11.21360015869141 L 24.17580032348633 11.21360015869141 L 12.85290050506592 11.21360015869141 L 6.594300270080566 11.21360015869141 L 5.606500148773193 11.21360015869141 L 6.191359996795654 10.41755962371826 L 8.035358428955078 7.907718181610107 L 6.224319934844971 5.915420055389404 L 5.464080333709717 5.079100131988525 L 6.594300270080566 5.079100131988525 L 24.17580032348633 5.079100131988525 L 25.11157989501953 5.079100131988525 L 24.59144973754883 5.857009887695312 L 23.22444915771484 7.901499271392822 L 24.61568069458008 10.47589015960693 L 25.01435089111328 11.21360015869141 Z M 24.27658081054688 2.000300168991089 L 24.13170051574707 2.000300168991089 L 20.77919960021973 2.000300168991089 L 19.05367088317871 2.000300168991089 L 20.22833633422852 1.257145166397095 C 20.10169792175293 0.9334233999252319 19.91533088684082 0.6103214621543884 19.67922019958496 0.3073500692844391 L 19.05002975463867 -0.4999999105930328 L 20.07360076904297 -0.4999999105930328 L 23.42609977722168 -0.4999999105930328 L 23.65269088745117 -0.4999999105930328 L 23.80206108093262 -0.3296199142932892 C 24.26626968383789 0.1998500823974609 24.56587982177734 0.7935301065444946 24.66848945617676 1.387240052223206 L 24.72537994384766 1.716370105743408 L 24.4431209564209 1.894940137863159 L 24.39901924133301 1.922840118408203 L 24.27658081054688 2.000300168991089 Z M 7.500600337982178 2.000300168991089 L 7.416900157928467 2.000300168991089 L 1.289700150489807 2.000300168991089 L 1.213794231414795 1.546841263771057 L 0.9189601540565491 1.686720132827759 C 0.6813901662826538 1.185960054397583 0.2942101657390594 0.7729800939559937 -0.2647198438644409 0.4241800904273987 L -1.745599865913391 -0.4999999105930328 L 1.617431593103902e-07 -0.4999999105930328 L 6.127200126647949 -0.4999999105930328 L 6.230309963226318 -0.4999999105930328 L 6.325000286102295 -0.4592099189758301 C 6.656929969787598 -0.3162399232387543 7.759060382843018 0.2074000835418701 8.005380630493164 0.9426000714302063 C 8.094929695129395 1.209870100021362 8.069700241088867 1.478610038757324 7.932430267333984 1.719760060310364 L 7.839100360870361 1.883700132369995 L 7.660730361938477 1.94514012336731 L 7.579730033874512 1.973040103912354 L 7.500600337982178 2.000300168991089 Z" stroke="none"/>
      <path d="M 24.17580032348633 10.71360015869141 L 22.64130020141602 7.874100208282471 L 24.17580032348633 5.579100131988525 L 6.594300270080566 5.579100131988525 L 8.680500030517578 7.874100208282471 L 6.594300270080566 10.71360015869141 L 12.85290050506592 10.71360015869141 L 24.17580032348633 10.71360015869141 M 24.13170051574707 1.500300049781799 L 24.17580032348633 1.472400069236755 C 24.08760070800781 0.962100088596344 23.82299995422363 0.4527000784873962 23.42609977722168 7.934570334100499e-08 L 20.07360076904297 7.934570334100499e-08 C 20.42639923095703 0.4527000784873962 20.69099998474121 0.962100088596344 20.82329940795898 1.472400069236755 L 20.77919960021973 1.500300049781799 L 24.13170051574707 1.500300049781799 M 7.416900157928467 1.500300049781799 L 7.497900009155273 1.472400069236755 C 7.901100158691406 0.7641000747680664 6.127200126647949 7.934570334100499e-08 6.127200126647949 7.934570334100499e-08 L 1.617431593103902e-07 7.934570334100499e-08 C 0.7254001498222351 0.4527000784873962 1.128600120544434 0.962100088596344 1.370700120925903 1.472400069236755 L 1.289700150489807 1.500300049781799 L 7.416900157928467 1.500300049781799 M 24.17580032348633 11.71360015869141 L 12.85290050506592 11.71360015869141 L 6.594300270080566 11.71360015869141 C 6.217299938201904 11.71360015869141 5.872350215911865 11.50158023834229 5.702090263366699 11.16522026062012 C 5.531830310821533 10.82886028289795 5.565210342407227 10.42533016204834 5.7884202003479 10.12152004241943 L 7.390211582183838 7.941342353820801 L 5.854330062866211 6.251739978790283 C 5.588089942932129 5.958859920501709 5.519659996032715 5.536499977111816 5.679790019989014 5.174530029296875 C 5.839930057525635 4.812560081481934 6.198490142822266 4.579100131988525 6.594300270080566 4.579100131988525 L 24.17580032348633 4.579100131988525 C 24.54483985900879 4.579100131988525 24.88388061523438 4.782350063323975 25.05779075622559 5.107840061187744 C 25.23171043395996 5.433330059051514 25.21221923828125 5.828150272369385 25.00710105895996 6.13493013381958 L 23.80759811401367 7.928908348083496 L 25.05554962158203 10.23816967010498 C 25.22302055358887 10.54806041717529 25.2150993347168 10.92319965362549 25.03470039367676 11.22574043273926 C 24.85431098937988 11.52828025817871 24.52803993225098 11.71360015869141 24.17580032348633 11.71360015869141 Z M 24.13170051574707 2.500300168991089 L 20.77919960021973 2.500300168991089 C 20.33411026000977 2.500300168991089 19.94259071350098 2.206120014190674 19.81871032714844 1.77862012386322 C 19.79028129577637 1.680509924888611 19.77751731872559 1.580827832221985 19.77927398681641 1.482540369033813 C 19.67061614990234 1.189783573150635 19.50237655639648 0.8938342332839966 19.28483963012695 0.6147000789642334 C 19.04996109008789 0.3133100867271423 19.00736045837402 -0.09558992087841034 19.17506980895996 -0.4389199316501617 C 19.3427906036377 -0.782249927520752 19.69149017333984 -0.9999999403953552 20.07360076904297 -0.9999999403953552 L 23.42609977722168 -0.9999999403953552 C 23.71412086486816 -0.9999999403953552 23.98814964294434 -0.875809907913208 24.17803001403809 -0.6592499017715454 C 24.70292091369629 -0.06055992096662521 25.04289054870605 0.6176601052284241 25.16119003295898 1.302090048789978 C 25.23006057739258 1.700550079345703 25.05216979980469 2.101279973983765 24.71043968200684 2.317480087280273 L 24.66633987426758 2.345380067825317 C 24.50638008117676 2.446580171585083 24.32098007202148 2.500300168991089 24.13170051574707 2.500300168991089 Z M 7.416900157928467 2.500300168991089 L 1.289700150489807 2.500300168991089 C 0.8011301755905151 2.500300168991089 0.3840901553630829 2.14726996421814 0.3034201562404633 1.66540002822876 C 0.2998459935188293 1.644047737121582 0.2969761490821838 1.622685670852661 0.2948002815246582 1.601407408714294 C 0.09966856986284256 1.31769061088562 -0.1685487031936646 1.073563814163208 -0.5294298529624939 0.8483501076698303 C -0.9079898595809937 0.6121000647544861 -1.084219813346863 0.1536200791597366 -0.9613398313522339 -0.2753599286079407 C -0.8384698629379272 -0.7043399214744568 -0.4462298452854156 -0.9999999403953552 1.617431593103902e-07 -0.9999999403953552 L 6.127200126647949 -0.9999999403953552 C 6.263240337371826 -0.9999999403953552 6.397860050201416 -0.9722399115562439 6.522809982299805 -0.9184198975563049 C 7.009950160980225 -0.7085798978805542 8.175789833068848 -0.1226699203252792 8.479479789733887 0.7837600708007812 C 8.613539695739746 1.183890104293823 8.573579788208008 1.604140043258667 8.366960525512695 1.96711003780365 C 8.246660232543945 2.178440093994141 8.05348014831543 2.338690042495728 7.823570251464844 2.417880058288574 L 7.742569923400879 2.445780038833618 C 7.63778018951416 2.481880187988281 7.527729988098145 2.500300168991089 7.416900157928467 2.500300168991089 Z" stroke="none" fill="#333"/>
    </g>
    <path id="Path-27" data-name="Path" d="M20.326,33.121c-.793-5.718-6.4-7.983-7.87-11.38C9.115,15.173,3.227,3.907,1.359.793A1.645,1.645,0,0,0,0,0" transform="translate(332.173 81.415)" fill="#cecccc" stroke="#333" stroke-linecap="round" stroke-linejoin="round" stroke-miterlimit="10" stroke-width="3"/>
    <path id="Trazado_8" data-name="Trazado 8" d="M308.888,84.812v37.173" fill="none" stroke="#000" stroke-width="1"/>
    <path id="Trazado_9" data-name="Trazado 9" d="M12.035,193.843H24.391v9.788H12.035Z" transform="translate(274.965 -107)" fill="none" stroke="#000" stroke-linecap="round" stroke-linejoin="round" stroke-width="1"/>
    <path id="Trazado_10" data-name="Trazado 10" d="M12.035,193.843H24.391v9.788H12.035Z" transform="translate(259.965 -107)" fill="none" stroke="#000" stroke-linecap="round" stroke-linejoin="round" stroke-width="1"/>
    <path id="Trazado_11" data-name="Trazado 11" d="M12.035,193.843H24.391v9.788H12.035Z" transform="translate(244.965 -107)" fill="none" stroke="#000" stroke-linecap="round" stroke-linejoin="round" stroke-width="1"/>
    <path id="Trazado_12" data-name="Trazado 12" d="M12.035,193.843H24.391v9.788H12.035Z" transform="translate(274.965 -107)" fill="none" stroke="#000" stroke-linecap="round" stroke-linejoin="round" stroke-width="1"/>
    <path id="Trazado_13" data-name="Trazado 13" d="M12.035,193.843H24.391v9.788H12.035Z" transform="translate(259.965 -107)" fill="none" stroke="#000" stroke-linecap="round" stroke-linejoin="round" stroke-width="1"/>
    <path id="Trazado_14" data-name="Trazado 14" d="M12.035,193.843H24.391v9.788H12.035Z" transform="translate(244.965 -107)" fill="none" stroke="#000" stroke-linecap="round" stroke-linejoin="round" stroke-width="1"/>
    <path id="Trazado_15" data-name="Trazado 15" d="M12.035,193.843H28.472v2.513H12.035Z" transform="translate(270.884 -74.724)" fill="none" stroke="#000" stroke-linecap="round" stroke-linejoin="round" stroke-width="1"/>
    <path id="Trazado_18" data-name="Trazado 18" d="M363.086,116.949v3.933" transform="translate(-1 0.842)" fill="none" stroke="#b7b7b7" stroke-linecap="round" stroke-width="1"/>
    <path id="Trazado_19" data-name="Trazado 19" d="M363.086,116.949v3.933" transform="translate(3 0.842)" fill="none" stroke="#b7b7b7" stroke-linecap="round" stroke-width="1"/>
    <path id="Trazado_20" data-name="Trazado 20" d="M363.086,116.949v3.933" transform="translate(5 0.842)" fill="none" stroke="#b7b7b7" stroke-linecap="round" stroke-width="1"/>
    <path id="Trazado_21" data-name="Trazado 21" d="M363.086,116.949v3.933" transform="translate(7 0.842)" fill="none" stroke="#b7b7b7" stroke-linecap="round" stroke-width="1"/>
    <path id="Trazado_22" data-name="Trazado 22" d="M363.086,116.949v3.933" transform="translate(9 0.842)" fill="none" stroke="#b7b7b7" stroke-linecap="round" stroke-width="1"/>
    <path id="Trazado_23" data-name="Trazado 23" d="M363.086,116.949v3.933" transform="translate(1 0.842)" fill="none" stroke="#b7b7b7" stroke-linecap="round" stroke-width="1"/>
    <path id="Trazado_24" data-name="Trazado 24" d="M1.1-.052l1.519,2.1H0Z" transform="translate(366 111.95)" fill="#333"/>
    <path id="Trazado_31" data-name="Trazado 31" d="M363.086,116.949v1.724" transform="translate(-2.345 2.051)" fill="none" stroke="#b7b7b7" stroke-linecap="round" stroke-width="1"/>
    <path id="Trazado_32" data-name="Trazado 32" d="M363.121,116.949v1.724" transform="translate(10.279 2.051)" fill="none" stroke="#b7b7b7" stroke-linecap="round" stroke-width="1"/>
    <path id="Trazado_26" data-name="Trazado 26" d="M121.157,198.541h3.608v2.943" transform="translate(242 -107)" fill="none" stroke="#333" stroke-linecap="round" stroke-linejoin="round" stroke-width="1"/>
    <path id="Trazado_27" data-name="Trazado 27" d="M121.726,201.865h5.7v7.121h-2.089" transform="translate(242 -107)" fill="#333" stroke="#333" stroke-linecap="round" stroke-linejoin="round" stroke-width="1"/>
    <path id="Trazado_28" data-name="Trazado 28" d="M121.726,201.865h6.552v3.806h-2.4" transform="translate(196.519 -93)" fill="#333" stroke="#333" stroke-linecap="round" stroke-linejoin="round" stroke-width="1"/>
    <path id="Trazado_29" data-name="Trazado 29" d="M124.765,198.541h-3.608v2.943" transform="translate(209.547 -106)" fill="none" stroke="#fff" stroke-linecap="round" stroke-linejoin="round" stroke-width="1"/>
    <path id="Trazado_30" data-name="Trazado 30" d="M127.045,201.865h-5.319v7.121h5.319" transform="translate(206.697 -106)" fill="#fff" stroke="#fff" stroke-linecap="round" stroke-linejoin="round" stroke-width="1"/>
  </g>
</svg>
